<svg width="26" height="26" viewBox="0 0 26 26" fill="none" xmlns="http://www.w3.org/2000/svg">
<path d="M5.41732 14.0834H18.2657L14.3332 18.8067C14.2421 18.9162 14.1735 19.0426 14.1313 19.1787C14.0891 19.3147 14.0741 19.4578 14.0872 19.5996C14.1136 19.8861 14.2527 20.1503 14.474 20.3342C14.6952 20.5181 14.9804 20.6065 15.2669 20.5801C15.5534 20.5537 15.8176 20.4146 16.0015 20.1934L21.4182 13.6934C21.4546 13.6417 21.4872 13.5873 21.5157 13.5309C21.5157 13.4767 21.5698 13.4442 21.5915 13.39C21.6406 13.2658 21.6663 13.1336 21.6673 13C21.6663 12.8665 21.6406 12.7342 21.5915 12.61C21.5915 12.5559 21.5373 12.5234 21.5157 12.4692C21.4872 12.4127 21.4546 12.3584 21.4182 12.3067L16.0015 5.8067C15.8996 5.68441 15.7721 5.58606 15.6279 5.51866C15.4837 5.45125 15.3265 5.41644 15.1673 5.4167C14.9142 5.4162 14.6689 5.50436 14.474 5.66586C14.3643 5.75681 14.2736 5.8685 14.2071 5.99454C14.1407 6.12059 14.0997 6.2585 14.0867 6.40039C14.0736 6.54229 14.0886 6.68536 14.1309 6.82143C14.1732 6.95751 14.2419 7.08389 14.3332 7.19336L18.2657 11.9167H5.41732C5.13 11.9167 4.85445 12.0308 4.65129 12.234C4.44812 12.4372 4.33398 12.7127 4.33398 13C4.33398 13.2873 4.44812 13.5629 4.65129 13.7661C4.85445 13.9692 5.13 14.0834 5.41732 14.0834Z" fill="#8C82A0"/>
</svg>
