<svg width="20" height="21" viewBox="0 0 20 21" fill="none" xmlns="http://www.w3.org/2000/svg">
<g clip-path="url(#clip0_6_219)">
<path d="M17.1036 2.18742C16.7719 1.855 16.3307 1.67188 15.8613 1.67188H15.0822V2.45312C15.0822 3.31469 14.3821 4.01562 13.5214 4.01562H6.49801C5.63738 4.01562 4.93723 3.31469 4.93723 2.45312V1.67188H4.15555C3.18844 1.67188 2.40078 2.45953 2.39969 3.42773L2.38281 18.7402C2.38227 19.2101 2.56469 19.652 2.89637 19.9845C3.22813 20.3169 3.6693 20.5 4.13867 20.5H15.8444C16.8115 20.5 17.5992 19.7123 17.6003 18.7441L17.6172 3.43164C17.6177 2.96176 17.4353 2.51988 17.1036 2.18742ZM10.199 7.53125H14.3573C14.6805 7.53125 14.9426 7.79359 14.9426 8.11719C14.9426 8.44078 14.6805 8.70312 14.3573 8.70312H10.199C9.87574 8.70312 9.61371 8.44078 9.61371 8.11719C9.61371 7.79359 9.87574 7.53125 10.199 7.53125ZM10.199 11.4375H14.3573C14.6805 11.4375 14.9426 11.6998 14.9426 12.0234C14.9426 12.347 14.6805 12.6094 14.3573 12.6094H10.199C9.87574 12.6094 9.61371 12.347 9.61371 12.0234C9.61371 11.6998 9.87574 11.4375 10.199 11.4375ZM10.199 15.3438H14.374C14.6973 15.3438 14.9593 15.6061 14.9593 15.9297C14.9593 16.2533 14.6973 16.5156 14.374 16.5156H10.199C9.87574 16.5156 9.61371 16.2533 9.61371 15.9297C9.61371 15.6061 9.87574 15.3438 10.199 15.3438ZM5.21215 7.55437C5.44074 7.32555 5.81129 7.32555 6.03988 7.55437L6.35813 7.87301L7.70789 6.52176C7.93649 6.29297 8.30703 6.29289 8.53559 6.52176C8.76414 6.75055 8.76414 7.12156 8.53559 7.35039L6.77195 9.11594C6.66219 9.22582 6.51332 9.28758 6.35809 9.28758C6.20285 9.28758 6.05399 9.22586 5.94422 9.11594L5.21211 8.38297C4.98356 8.15418 4.98356 7.78316 5.21215 7.55437ZM5.21215 11.7589C5.44074 11.5301 5.81129 11.5301 6.03988 11.7589L6.35813 12.0775L7.70789 10.7263C7.93645 10.4975 8.30703 10.4975 8.53559 10.7263C8.76414 10.9551 8.76414 11.3261 8.53559 11.5549L6.77195 13.3205C6.66223 13.4304 6.51332 13.4921 6.35809 13.4921C6.20285 13.4921 6.05399 13.4304 5.94422 13.3205L5.21211 12.5875C4.98356 12.3588 4.98356 11.9878 5.21215 11.7589ZM5.21215 15.6652C5.44074 15.4364 5.81129 15.4364 6.03988 15.6652L6.35813 15.9838L7.70789 14.6325C7.93645 14.4038 8.30703 14.4038 8.53559 14.6325C8.76414 14.8613 8.76414 15.2323 8.53559 15.4612L6.77195 17.2268C6.66223 17.3366 6.51332 17.3984 6.35809 17.3984C6.20285 17.3984 6.05399 17.3367 5.94422 17.2268L5.21211 16.4938C4.98356 16.265 4.98356 15.894 5.21215 15.6652Z" fill="white"/>
<path d="M6.10791 2.45312C6.10791 2.66887 6.2826 2.84375 6.49811 2.84375H13.5215C13.7371 2.84375 13.9117 2.66887 13.9117 2.45312V0.890625C13.9117 0.674883 13.7371 0.5 13.5215 0.5H6.49811C6.2826 0.5 6.10791 0.674883 6.10791 0.890625V2.45312Z" fill="white"/>
</g>
<defs>
<clipPath id="clip0_6_219">
<rect width="20" height="20" fill="white" transform="translate(0 0.5)"/>
</clipPath>
</defs>
</svg>
