<svg width="24" height="24" viewBox="0 0 24 24" fill="none" xmlns="http://www.w3.org/2000/svg">
<path d="M16.828 6.52682C17.2586 4.50099 15.9655 2.50972 13.9397 2.07911C11.9138 1.64851 9.92255 2.94166 9.49194 4.96749C9.06134 6.99332 10.3545 8.9846 12.3803 9.4152C14.4062 9.8458 16.3974 8.55265 16.828 6.52682ZM11.1253 11.1092C9.15334 9.23965 5.56253 8.07785 3.73709 7.58002C3.12366 7.41289 2.50539 7.77587 2.37845 8.37307L0.568974 16.886C0.452593 17.4335 0.79838 17.9842 1.36144 18.1347C3.01104 18.5768 6.31788 19.6147 8.40079 21.2855C8.72047 21.5419 9.19719 21.3864 9.27971 20.9982L11.2775 11.5993C11.3151 11.4207 11.2616 11.2385 11.1253 11.1092ZM21.0227 11.2542C19.1531 10.9662 15.3997 10.5674 12.8382 11.4733C12.6612 11.5359 12.5368 11.6872 12.4988 11.8656L10.5026 21.257C10.4199 21.6463 10.7932 21.9829 11.1908 21.8785C13.7726 21.2005 17.2138 21.5968 18.9002 21.8639C19.4758 21.9551 20.0157 21.5926 20.1321 21.0451L21.9417 12.5314C22.0683 11.9341 21.6511 11.351 21.0227 11.2542Z" fill="white"/>
</svg>
