<svg width="407" height="131" viewBox="0 0 407 131" fill="none" xmlns="http://www.w3.org/2000/svg">
<path d="M4.5 66.5H402.5V123C402.5 127.142 399.142 130.5 395 130.5H12C7.85786 130.5 4.5 127.142 4.5 123V66.5Z" fill="#F3BC16" stroke="#0D6EFD"/>
<g filter="url(#filter0_d_46_1307)">
<mask id="path-2-inside-1_46_1307" fill="white">
<path d="M4 10C4 5.58172 7.58172 2 12 2H395C399.418 2 403 5.58172 403 10V67H4V10Z"/>
</mask>
<path d="M4 10C4 5.58172 7.58172 2 12 2H395C399.418 2 403 5.58172 403 10V67H4V10Z" fill="#2DB6C3"/>
<path d="M3 10C3 5.02944 7.02944 1 12 1H395C399.971 1 404 5.02944 404 10H402C402 6.13401 398.866 3 395 3H12C8.13401 3 5 6.13401 5 10H3ZM403 67H4H403ZM3 67V10C3 5.02944 7.02944 1 12 1V3C8.13401 3 5 6.13401 5 10V67H3ZM395 1C399.971 1 404 5.02944 404 10V67H402V10C402 6.13401 398.866 3 395 3V1Z" fill="#0D6EFD" mask="url(#path-2-inside-1_46_1307)"/>
<path d="M37 78L62.9808 64.5H11.0192L37 78Z" fill="#2DB6C3"/>
</g>
<defs>
<filter id="filter0_d_46_1307" x="0" y="0" width="407" height="84" filterUnits="userSpaceOnUse" color-interpolation-filters="sRGB">
<feFlood flood-opacity="0" result="BackgroundImageFix"/>
<feColorMatrix in="SourceAlpha" type="matrix" values="0 0 0 0 0 0 0 0 0 0 0 0 0 0 0 0 0 0 127 0" result="hardAlpha"/>
<feOffset dy="2"/>
<feGaussianBlur stdDeviation="2"/>
<feComposite in2="hardAlpha" operator="out"/>
<feColorMatrix type="matrix" values="0 0 0 0 0.290196 0 0 0 0 0.227451 0 0 0 0 0.0235294 0 0 0 1 0"/>
<feBlend mode="normal" in2="BackgroundImageFix" result="effect1_dropShadow_46_1307"/>
<feBlend mode="normal" in="SourceGraphic" in2="effect1_dropShadow_46_1307" result="shape"/>
</filter>
</defs>
</svg>
