<svg width="20" height="16" viewBox="0 0 20 16" fill="none" xmlns="http://www.w3.org/2000/svg">
<path d="M7.14282 10.7151L16.7209 1.13711C17.0777 0.782051 17.5031 0.604523 17.9972 0.604523C18.4915 0.604523 18.9161 0.78001 19.2712 1.13098C19.6263 1.48195 19.8038 1.90701 19.8038 2.40615C19.8038 2.90509 19.6263 3.33209 19.2712 3.68715L8.4034 14.5386C8.05185 14.8937 7.63253 15.0712 7.14544 15.0712C6.65836 15.0712 6.23729 14.8937 5.88224 14.5386L0.77311 9.44582C0.418055 9.08493 0.242568 8.65841 0.246652 8.16627C0.250929 7.67413 0.428555 7.25054 0.779527 6.89548C1.14158 6.52954 1.56936 6.34657 2.06286 6.34657C2.55655 6.34657 2.98093 6.52954 3.33599 6.89548L7.14282 10.7151Z" fill="white"/>
</svg>
