<svg width="16" height="16" viewBox="0 0 16 16" fill="none" xmlns="http://www.w3.org/2000/svg">
<g clip-path="url(#clip0_681_5789)">
<path d="M13.6366 13.6373C16.7608 10.5131 16.7608 5.44781 13.6366 2.32361C10.5124 -0.800581 5.44707 -0.800581 2.32287 2.32361C-0.801323 5.44781 -0.801325 10.5131 2.32287 13.6373C5.44706 16.7615 10.5124 16.7615 13.6366 13.6373Z" fill="white"/>
<!-- <path d="M16 0H0V16H16V0Z" fill="#F5F5F5"/> -->
<!-- <path d="M16 0H0V16H16V0Z" fill="#F5F5F5"/> -->
<g opacity="0.2">
<path d="M14.3996 8.25591C14.3996 7.81558 14.3623 7.39389 14.2988 6.9834H7.95117V9.59187H11.6008C11.4254 10.3942 10.9627 11.0771 10.276 11.5436L11.1162 12.2014L12.3994 13.1892C13.6644 12.0249 14.3996 10.3009 14.3996 8.25591Z" fill="#808285"/>
<path d="M7.95194 14.8195C9.76556 14.8195 11.2844 14.2187 12.3964 13.1925L10.2731 11.5468C9.66481 11.961 8.87742 12.2073 7.95195 12.2073C6.18685 12.2073 4.68669 11.0207 4.1456 9.41602L3.19975 10.1492L1.95508 11.1139C3.05967 13.3119 5.32855 14.8195 7.95194 14.8195Z" fill="#808285"/>
<path d="M4.14511 9.41686C4.00331 9.00264 3.92494 8.56229 3.92494 8.10329C3.92494 7.64429 4.00331 7.20395 4.14511 6.78973L3.17808 6.04015L1.9546 5.0918C1.49933 5.99861 1.23438 7.01737 1.23438 8.10329C1.23438 9.18923 1.49933 10.208 1.9546 11.1148L4.14511 9.41686Z" fill="#808285"/>
<path d="M7.95195 3.99794C8.95205 3.99794 9.85139 4.34126 10.5604 5.0167V5.02044L12.4449 3.13592C11.2806 2.04999 9.76556 1.38574 7.95195 1.38574C5.32855 1.38574 3.05967 2.89336 1.95508 5.09134L4.14559 6.78927C4.68669 5.18463 6.18685 3.99794 7.95195 3.99794Z" fill="#808285"/>
</g>
<path d="M14.7668 8.05083C14.7668 7.6105 14.7295 7.18881 14.666 6.77832H8.31836V9.38679H11.968C11.7926 10.1891 11.3299 10.872 10.6432 11.3385L11.4834 11.9963L12.7666 12.9842C14.0316 11.8199 14.7668 10.0958 14.7668 8.05083Z" fill="#4285F4"/>
<path d="M8.31913 14.6145C10.1327 14.6145 11.6516 14.0137 12.7636 12.9874L10.6403 11.3417C10.032 11.756 9.2446 12.0023 8.31913 12.0023C6.55403 12.0023 5.05388 10.8156 4.51278 9.21094L3.56694 9.94409L2.32227 10.9089C3.42685 13.1068 5.69573 14.6145 8.31913 14.6145Z" fill="#34A853"/>
<path d="M4.5123 9.21178C4.3705 8.79756 4.29213 8.35722 4.29213 7.89822C4.29213 7.43921 4.37049 6.99888 4.5123 6.58465L3.54527 5.83508L2.32178 4.88672C1.86651 5.79353 1.60156 6.81229 1.60156 7.89821C1.60156 8.98415 1.86651 10.0029 2.32178 10.9097L4.5123 9.21178Z" fill="#FBBC05"/>
<path d="M8.31914 3.79286C9.31924 3.79286 10.2186 4.13618 10.9276 4.81162V4.81536L12.8121 2.93084C11.6478 1.84491 10.1327 1.18066 8.31914 1.18066C5.69574 1.18066 3.42686 2.68828 2.32227 4.88626L4.51278 6.58419C5.05388 4.97955 6.55404 3.79286 8.31914 3.79286Z" fill="#EA4335"/>
</g>
<defs>
<clipPath id="clip0_681_5789">
<rect width="16" height="16" fill=""/>
</clipPath>
</defs>
</svg>
