<svg width="20" height="21" viewBox="0 0 20 21" fill="none" xmlns="http://www.w3.org/2000/svg">
<g clip-path="url(#clip0_67_140)">
<path d="M17.0711 3.42891C15.1823 1.54016 12.6711 0.5 10 0.5C7.32887 0.5 4.8177 1.54016 2.92891 3.42891C1.04016 5.3177 0 7.82891 0 10.5C0 13.1711 1.04016 15.6823 2.92891 17.5711C4.8177 19.4598 7.32887 20.5 10 20.5C12.6711 20.5 15.1823 19.4598 17.0711 17.5711C18.9598 15.6823 20 13.1711 20 10.5C20 7.82891 18.9598 5.3177 17.0711 3.42891ZM10 4.2359C10.8299 4.2359 11.5026 4.90863 11.5026 5.73852C11.5026 6.5684 10.8299 7.24113 10 7.24113C9.17012 7.24113 8.49738 6.5684 8.49738 5.73852C8.49738 4.90863 9.17012 4.2359 10 4.2359ZM11.5026 16.9163H8.49738C7.78898 16.9163 7.21469 16.3421 7.21469 15.6336C7.21469 14.9252 7.78895 14.3509 8.49738 14.3509H8.53402V11.1922C7.82445 11.0898 7.27918 10.4793 7.27918 9.74133C7.27918 8.93172 7.93551 8.27535 8.74516 8.27535H10C10.8096 8.27535 11.466 8.93168 11.466 9.74133V14.3509H11.5026C12.211 14.3509 12.7853 14.9252 12.7853 15.6336C12.7853 16.3421 12.211 16.9163 11.5026 16.9163Z" fill="white"/>
</g>
<defs>
<clipPath id="clip0_67_140">
<rect width="20" height="20" fill="white" transform="translate(0 0.5)"/>
</clipPath>
</defs>
</svg>
