<svg width="18" height="21" viewBox="0 0 18 21" fill="none" xmlns="http://www.w3.org/2000/svg">
<path d="M16.0714 9.25H15.1071V6.4375C15.1071 3.16406 12.367 0.5 9 0.5C5.63304 0.5 2.89286 3.16406 2.89286 6.4375V9.25H1.92857C0.863839 9.25 0 10.0898 0 11.125V18.625C0 19.6602 0.863839 20.5 1.92857 20.5H16.0714C17.1362 20.5 18 19.6602 18 18.625V11.125C18 10.0898 17.1362 9.25 16.0714 9.25ZM11.8929 9.25H6.10714V6.4375C6.10714 4.88672 7.40491 3.625 9 3.625C10.5951 3.625 11.8929 4.88672 11.8929 6.4375V9.25Z" fill="white"/>
</svg>
