<svg width="24" height="24" viewBox="0 0 24 24" fill="none" xmlns="http://www.w3.org/2000/svg">
<mask id="mask0_6_540" style="mask-type:alpha" maskUnits="userSpaceOnUse" x="0" y="0" width="24" height="24">
<rect width="24" height="24" fill="#D9D9D9"/>
</mask>
<g mask="url(#mask0_6_540)">
<path d="M12 22.8838C10.494 22.8838 9.07804 22.5991 7.75221 22.0298C6.42621 21.4604 5.27338 20.6859 4.29371 19.7063C3.31404 18.7266 2.53954 17.5738 1.97021 16.2478C1.40088 14.9219 1.11621 13.506 1.11621 12C1.11621 10.4898 1.40138 9.07092 1.97171 7.74326C2.54204 6.41559 3.31821 5.26051 4.30021 4.27801C5.28221 3.29567 6.43496 2.52317 7.75846 1.96051C9.08213 1.39767 10.496 1.11626 12 1.11626C13.51 1.11626 14.9289 1.39759 16.2567 1.96026C17.5844 2.52292 18.7395 3.29551 19.722 4.27801C20.7045 5.26051 21.477 6.41584 22.0397 7.74401C22.6024 9.07217 22.8837 10.4915 22.8837 12.002C22.8837 13.5127 22.6023 14.9278 22.0395 16.2473C21.4768 17.5669 20.7043 18.7178 19.722 19.6998C18.7395 20.6818 17.5844 21.4579 16.2567 22.0283C14.929 22.5986 13.5101 22.8838 12 22.8838ZM11.9987 20.0543C14.2509 20.0543 16.1565 19.2752 17.7157 17.717C19.2747 16.1588 20.0542 14.2536 20.0542 12.0013C20.0542 9.74909 19.2751 7.84342 17.717 6.28426C16.1588 4.72526 14.2535 3.94576 12.0012 3.94576C9.74905 3.94576 7.84338 4.72484 6.28421 6.28301C4.72521 7.84117 3.94571 9.74642 3.94571 11.9988C3.94571 14.2509 4.72479 16.1566 6.28296 17.7158C7.84113 19.2748 9.74638 20.0543 11.9987 20.0543Z" fill="white"/>
</g>
</svg>
