<svg width="24" height="24" viewBox="0 0 24 24" fill="none" xmlns="http://www.w3.org/2000/svg">
<mask id="mask0_6_543" style="mask-type:alpha" maskUnits="userSpaceOnUse" x="0" y="0" width="24" height="24">
<rect width="24" height="24" fill="#D9D9D9"/>
</mask>
<g mask="url(#mask0_6_543)">
<path d="M12.0002 17.5982C13.5492 17.5982 14.8695 17.0524 15.961 15.9607C17.0525 14.8691 17.5982 13.5487 17.5982 11.9997C17.5982 10.4507 17.0524 9.13049 15.9607 8.03899C14.869 6.94749 13.5487 6.40174 11.9997 6.40174C10.4507 6.40174 9.13046 6.94758 8.03896 8.03924C6.94746 9.13091 6.40171 10.4512 6.40171 12.0002C6.40171 13.5492 6.94755 14.8695 8.03921 15.961C9.13088 17.0525 10.4512 17.5982 12.0002 17.5982ZM12 22.8837C10.494 22.8837 9.07804 22.5991 7.75221 22.0297C6.42621 21.4604 5.27338 20.6859 4.29371 19.7062C3.31404 18.7266 2.53954 17.5737 1.97021 16.2477C1.40088 14.9219 1.11621 13.506 1.11621 12C1.11621 10.4898 1.40138 9.07091 1.97171 7.74324C2.54204 6.41557 3.31821 5.26049 4.30021 4.27799C5.28221 3.29566 6.43496 2.52316 7.75846 1.96049C9.08213 1.39766 10.496 1.11624 12 1.11624C13.51 1.11624 14.9289 1.39757 16.2567 1.96024C17.5844 2.52291 18.7395 3.29549 19.722 4.27799C20.7045 5.26049 21.477 6.41582 22.0397 7.74399C22.6024 9.07216 22.8837 10.4915 22.8837 12.002C22.8837 13.5127 22.6023 14.9277 22.0395 16.2472C21.4768 17.5669 20.7043 18.7177 19.722 19.6997C18.7395 20.6817 17.5844 21.4579 16.2567 22.0282C14.929 22.5986 13.5101 22.8837 12 22.8837ZM11.9987 20.0542C14.2509 20.0542 16.1565 19.2752 17.7157 17.717C19.2747 16.1588 20.0542 14.2536 20.0542 12.0012C20.0542 9.74907 19.2751 7.84341 17.717 6.28424C16.1588 4.72524 14.2535 3.94574 12.0012 3.94574C9.74905 3.94574 7.84338 4.72482 6.28421 6.28299C4.72521 7.84116 3.94571 9.74641 3.94571 11.9987C3.94571 14.2509 4.72479 16.1566 6.28296 17.7157C7.84113 19.2747 9.74638 20.0542 11.9987 20.0542Z" fill="red"/>
</g>
</svg>
