<svg width="80" height="25" viewBox="0 0 80 25" fill="none" xmlns="http://www.w3.org/2000/svg">
<path d="M12.875 18.0469C12.875 17.6406 12.8125 17.276 12.6875 16.9531C12.5729 16.6198 12.3542 16.3177 12.0312 16.0469C11.7083 15.7656 11.2552 15.4896 10.6719 15.2188C10.0885 14.9479 9.33333 14.6667 8.40625 14.375C7.375 14.0417 6.39583 13.6667 5.46875 13.25C4.55208 12.8333 3.73958 12.349 3.03125 11.7969C2.33333 11.2344 1.78125 10.5833 1.375 9.84375C0.979167 9.10417 0.78125 8.24479 0.78125 7.26562C0.78125 6.31771 0.989583 5.45833 1.40625 4.6875C1.82292 3.90625 2.40625 3.23958 3.15625 2.6875C3.90625 2.125 4.79167 1.69271 5.8125 1.39062C6.84375 1.08854 7.97396 0.9375 9.20312 0.9375C10.8802 0.9375 12.3438 1.23958 13.5938 1.84375C14.8438 2.44792 15.8125 3.27604 16.5 4.32812C17.1979 5.38021 17.5469 6.58333 17.5469 7.9375H12.8906C12.8906 7.27083 12.75 6.6875 12.4688 6.1875C12.1979 5.67708 11.7812 5.27604 11.2188 4.98438C10.6667 4.69271 9.96875 4.54688 9.125 4.54688C8.3125 4.54688 7.63542 4.67188 7.09375 4.92188C6.55208 5.16146 6.14583 5.48958 5.875 5.90625C5.60417 6.3125 5.46875 6.77083 5.46875 7.28125C5.46875 7.66667 5.5625 8.01562 5.75 8.32812C5.94792 8.64062 6.23958 8.93229 6.625 9.20312C7.01042 9.47396 7.48438 9.72917 8.04688 9.96875C8.60938 10.2083 9.26042 10.4427 10 10.6719C11.2396 11.0469 12.3281 11.4688 13.2656 11.9375C14.2135 12.4062 15.0052 12.9323 15.6406 13.5156C16.276 14.099 16.7552 14.7604 17.0781 15.5C17.401 16.2396 17.5625 17.0781 17.5625 18.0156C17.5625 19.0052 17.3698 19.8906 16.9844 20.6719C16.599 21.4531 16.0417 22.1146 15.3125 22.6562C14.5833 23.1979 13.7135 23.6094 12.7031 23.8906C11.6927 24.1719 10.5625 24.3125 9.3125 24.3125C8.1875 24.3125 7.07812 24.1667 5.98438 23.875C4.89062 23.5729 3.89583 23.1198 3 22.5156C2.11458 21.9115 1.40625 21.1406 0.875 20.2031C0.34375 19.2656 0.078125 18.1562 0.078125 16.875H4.78125C4.78125 17.5833 4.89062 18.1823 5.10938 18.6719C5.32812 19.1615 5.63542 19.5573 6.03125 19.8594C6.4375 20.1615 6.91667 20.3802 7.46875 20.5156C8.03125 20.651 8.64583 20.7188 9.3125 20.7188C10.125 20.7188 10.7917 20.6042 11.3125 20.375C11.8438 20.1458 12.2344 19.8281 12.4844 19.4219C12.7448 19.0156 12.875 18.5573 12.875 18.0469ZM27.4531 20.7969C28.0052 20.7969 28.4948 20.6927 28.9219 20.4844C29.349 20.2656 29.6823 19.9635 29.9219 19.5781C30.1719 19.1823 30.3021 18.7188 30.3125 18.1875H34.5469C34.5365 19.375 34.2188 20.4323 33.5938 21.3594C32.9688 22.276 32.1302 23 31.0781 23.5312C30.026 24.0521 28.849 24.3125 27.5469 24.3125C26.2344 24.3125 25.0885 24.0938 24.1094 23.6562C23.1406 23.2188 22.3333 22.6146 21.6875 21.8438C21.0417 21.0625 20.5573 20.1562 20.2344 19.125C19.9115 18.0833 19.75 16.9688 19.75 15.7812V15.3281C19.75 14.1302 19.9115 13.0156 20.2344 11.9844C20.5573 10.9427 21.0417 10.0365 21.6875 9.26562C22.3333 8.48438 23.1406 7.875 24.1094 7.4375C25.0781 7 26.2135 6.78125 27.5156 6.78125C28.901 6.78125 30.1146 7.04688 31.1562 7.57812C32.2083 8.10938 33.0312 8.86979 33.625 9.85938C34.2292 10.8385 34.5365 12 34.5469 13.3438H30.3125C30.3021 12.7812 30.1823 12.2708 29.9531 11.8125C29.7344 11.3542 29.4115 10.9896 28.9844 10.7188C28.5677 10.4375 28.0521 10.2969 27.4375 10.2969C26.7812 10.2969 26.2448 10.4375 25.8281 10.7188C25.4115 10.9896 25.0885 11.3646 24.8594 11.8438C24.6302 12.3125 24.4688 12.849 24.375 13.4531C24.2917 14.0469 24.25 14.6719 24.25 15.3281V15.7812C24.25 16.4375 24.2917 17.0677 24.375 17.6719C24.4583 18.276 24.6146 18.8125 24.8438 19.2812C25.0833 19.75 25.4115 20.1198 25.8281 20.3906C26.2448 20.6615 26.7865 20.7969 27.4531 20.7969ZM41.6562 10.7812V24H37.1562V7.09375H41.3906L41.6562 10.7812ZM46.75 6.98438L46.6719 11.1562C46.4531 11.125 46.1875 11.099 45.875 11.0781C45.5729 11.0469 45.2969 11.0312 45.0469 11.0312C44.4115 11.0312 43.8594 11.1146 43.3906 11.2812C42.9323 11.4375 42.5469 11.6719 42.2344 11.9844C41.9323 12.2969 41.7031 12.6771 41.5469 13.125C41.401 13.5729 41.3177 14.0833 41.2969 14.6562L40.3906 14.375C40.3906 13.2812 40.5 12.276 40.7188 11.3594C40.9375 10.4323 41.2552 9.625 41.6719 8.9375C42.099 8.25 42.6198 7.71875 43.2344 7.34375C43.849 6.96875 44.5521 6.78125 45.3438 6.78125C45.5938 6.78125 45.849 6.80208 46.1094 6.84375C46.3698 6.875 46.5833 6.92188 46.75 6.98438ZM47.6875 15.7188V15.3906C47.6875 14.151 47.8646 13.0104 48.2188 11.9688C48.5729 10.9167 49.0885 10.0052 49.7656 9.23438C50.4427 8.46354 51.276 7.86458 52.2656 7.4375C53.2552 7 54.3906 6.78125 55.6719 6.78125C56.9531 6.78125 58.0938 7 59.0938 7.4375C60.0938 7.86458 60.9323 8.46354 61.6094 9.23438C62.2969 10.0052 62.8177 10.9167 63.1719 11.9688C63.526 13.0104 63.7031 14.151 63.7031 15.3906V15.7188C63.7031 16.9479 63.526 18.0885 63.1719 19.1406C62.8177 20.1823 62.2969 21.0938 61.6094 21.875C60.9323 22.6458 60.099 23.2448 59.1094 23.6719C58.1198 24.099 56.9844 24.3125 55.7031 24.3125C54.4219 24.3125 53.2812 24.099 52.2812 23.6719C51.2917 23.2448 50.4531 22.6458 49.7656 21.875C49.0885 21.0938 48.5729 20.1823 48.2188 19.1406C47.8646 18.0885 47.6875 16.9479 47.6875 15.7188ZM52.1875 15.3906V15.7188C52.1875 16.4271 52.25 17.0885 52.375 17.7031C52.5 18.3177 52.6979 18.8594 52.9688 19.3281C53.25 19.7865 53.6146 20.1458 54.0625 20.4062C54.5104 20.6667 55.0573 20.7969 55.7031 20.7969C56.3281 20.7969 56.8646 20.6667 57.3125 20.4062C57.7604 20.1458 58.1198 19.7865 58.3906 19.3281C58.6615 18.8594 58.8594 18.3177 58.9844 17.7031C59.1198 17.0885 59.1875 16.4271 59.1875 15.7188V15.3906C59.1875 14.7031 59.1198 14.0573 58.9844 13.4531C58.8594 12.8385 58.6562 12.2969 58.375 11.8281C58.1042 11.349 57.7448 10.974 57.2969 10.7031C56.849 10.4323 56.3073 10.2969 55.6719 10.2969C55.0365 10.2969 54.4948 10.4323 54.0469 10.7031C53.6094 10.974 53.25 11.349 52.9688 11.8281C52.6979 12.2969 52.5 12.8385 52.375 13.4531C52.25 14.0573 52.1875 14.7031 52.1875 15.3906ZM71.2188 0V24H66.7031V0H71.2188ZM79.6875 0V24H75.1719V0H79.6875Z" fill="#FED81F"/>
</svg>
