<svg width="16" height="16" viewBox="0 0 16 16" fill="none" xmlns="http://www.w3.org/2000/svg">
<path fill-rule="evenodd" clip-rule="evenodd" d="M11.9838 6.84761C11.9838 8.20951 11.4428 9.51564 10.4798 10.4786C9.51678 11.4417 8.21065 11.9827 6.84875 11.9827C5.48684 11.9827 4.18072 11.4417 3.21771 10.4786C2.25469 9.51564 1.71368 8.20951 1.71368 6.84761C1.71368 5.4857 2.25469 4.17958 3.21771 3.21656C4.18072 2.25355 5.48684 1.71254 6.84875 1.71254C8.21065 1.71254 9.51678 2.25355 10.4798 3.21656C11.4428 4.17958 11.9838 5.4857 11.9838 6.84761ZM11.0479 12.2577C9.67181 13.3261 7.94033 13.8298 6.20592 13.6664C4.47152 13.503 2.86458 12.6847 1.71225 11.3782C0.559919 10.0717 -0.0511797 8.37511 0.00336019 6.63388C0.0579 4.89265 0.773979 3.23766 2.00582 2.00582C3.23766 0.773979 4.89265 0.0579 6.63388 0.00336019C8.37511 -0.0511797 10.0717 0.559919 11.3782 1.71225C12.6847 2.86458 13.503 4.47152 13.6664 6.20592C13.8298 7.94033 13.3261 9.67181 12.2577 11.0479L15.7275 14.5177C15.8116 14.596 15.8791 14.6906 15.9259 14.7956C15.9727 14.9006 15.9978 15.0139 15.9999 15.1289C16.0019 15.2438 15.9808 15.358 15.9377 15.4646C15.8946 15.5712 15.8306 15.668 15.7493 15.7493C15.668 15.8306 15.5712 15.8946 15.4646 15.9377C15.358 15.9808 15.2438 16.0019 15.1289 15.9999C15.0139 15.9978 14.9006 15.9727 14.7956 15.9259C14.6906 15.8791 14.596 15.8116 14.5177 15.7275L11.0479 12.2577Z" fill="#6C757D"/>
</svg>
