<svg width="34" height="34" viewBox="0 0 34 34" fill="none" xmlns="http://www.w3.org/2000/svg">
<circle cx="17" cy="17" r="17" fill="#28184C"/>
<g clip-path="url(#clip0_4_442)">
<path d="M17.5851 9.94268L19.4837 13.7758C19.5269 13.873 19.5948 13.9573 19.6807 14.0202C19.7666 14.083 19.8675 14.1223 19.9733 14.134L24.1646 14.7549C24.286 14.7705 24.4004 14.8203 24.4945 14.8985C24.5886 14.9767 24.6585 15.0801 24.6961 15.1965C24.7336 15.313 24.7373 15.4377 24.7066 15.5562C24.676 15.6746 24.6122 15.7819 24.5229 15.8655L21.5018 18.8627C21.4246 18.9347 21.3667 19.0249 21.3334 19.125C21.3001 19.2251 21.2922 19.3319 21.3107 19.4358L22.0391 23.651C22.0601 23.7722 22.0469 23.8968 22.0007 24.0107C21.9544 24.1246 21.8771 24.2232 21.7776 24.2955C21.678 24.3676 21.5603 24.4103 21.4375 24.4188C21.3149 24.4274 21.1924 24.4013 21.0838 24.3436L17.3104 22.3494C17.2138 22.302 17.1076 22.2773 17 22.2773C16.8923 22.2773 16.7861 22.302 16.6895 22.3494L12.9161 24.3436C12.8076 24.4013 12.685 24.4274 12.5623 24.4188C12.4397 24.4103 12.3219 24.3676 12.2224 24.2955C12.1228 24.2232 12.0455 24.1246 11.9993 24.0107C11.9531 23.8968 11.9397 23.7722 11.9608 23.651L12.6892 19.3881C12.7077 19.2842 12.6999 19.1773 12.6665 19.0772C12.6332 18.9771 12.5753 18.8869 12.4982 18.8149L9.44127 15.8655C9.35083 15.7796 9.28723 15.6693 9.25817 15.5481C9.22911 15.4268 9.23584 15.2997 9.27754 15.1822C9.31924 15.0647 9.39413 14.9617 9.49313 14.8859C9.59213 14.8101 9.71099 14.7646 9.83532 14.7549L14.0266 14.134C14.1324 14.1223 14.2333 14.083 14.3192 14.0202C14.4051 13.9573 14.473 13.873 14.5162 13.7758L16.4149 9.94268C16.4666 9.83104 16.5491 9.73652 16.6528 9.67028C16.7565 9.60405 16.8769 9.56885 17 9.56885C17.123 9.56885 17.2435 9.60405 17.3471 9.67028C17.4508 9.73652 17.5334 9.83104 17.5851 9.94268Z" stroke="white" stroke-width="1.71" stroke-linecap="round" stroke-linejoin="round"/>
</g>
<defs>
<clipPath id="clip0_4_442">
<rect width="18" height="18" fill="white" transform="translate(8 8)"/>
</clipPath>
</defs>
</svg>
