<svg width="63" height="26" viewBox="0 0 63 26" fill="none" xmlns="http://www.w3.org/2000/svg">
<rect width="63" height="26" rx="6" fill="#1A8754"/>
<path d="M13.8379 15.2188L15.8477 8.46875H17.8047L14.834 17H13.5449L13.8379 15.2188ZM11.9863 8.46875L13.9902 15.2188L14.2949 17H12.9941L10.041 8.46875H11.9863ZM21.1562 17.1172C20.6641 17.1172 20.2227 17.0391 19.832 16.8828C19.4414 16.7227 19.1094 16.502 18.8359 16.2207C18.5664 15.9395 18.3594 15.6133 18.2148 15.2422C18.0703 14.8672 17.998 14.4688 17.998 14.0469V13.8125C17.998 13.332 18.0664 12.8926 18.2031 12.4941C18.3398 12.0957 18.5352 11.75 18.7891 11.457C19.0469 11.1641 19.3594 10.9395 19.7266 10.7832C20.0938 10.623 20.5078 10.543 20.9688 10.543C21.418 10.543 21.8164 10.6172 22.1641 10.7656C22.5117 10.9141 22.8027 11.125 23.0371 11.3984C23.2754 11.6719 23.4551 12 23.5762 12.3828C23.6973 12.7617 23.7578 13.1836 23.7578 13.6484V14.3516H18.7188V13.2266H22.0996V13.0977C22.0996 12.8633 22.0566 12.6543 21.9707 12.4707C21.8887 12.2832 21.7637 12.1348 21.5957 12.0254C21.4277 11.916 21.2129 11.8613 20.9512 11.8613C20.7285 11.8613 20.5371 11.9102 20.377 12.0078C20.2168 12.1055 20.0859 12.2422 19.9844 12.418C19.8867 12.5938 19.8125 12.8008 19.7617 13.0391C19.7148 13.2734 19.6914 13.5312 19.6914 13.8125V14.0469C19.6914 14.3008 19.7266 14.5352 19.7969 14.75C19.8711 14.9648 19.9746 15.1504 20.1074 15.3066C20.2441 15.4629 20.4082 15.584 20.5996 15.6699C20.7949 15.7559 21.0156 15.7988 21.2617 15.7988C21.5664 15.7988 21.8496 15.7402 22.1113 15.623C22.377 15.502 22.6055 15.3203 22.7969 15.0781L23.6172 15.9688C23.4844 16.1602 23.3027 16.3438 23.0723 16.5195C22.8457 16.6953 22.5723 16.8398 22.252 16.9531C21.9316 17.0625 21.5664 17.1172 21.1562 17.1172ZM26.4062 12.043V17H24.7188V10.6602H26.3066L26.4062 12.043ZM28.3164 10.6191L28.2871 12.1836C28.2051 12.1719 28.1055 12.1621 27.9883 12.1543C27.875 12.1426 27.7715 12.1367 27.6777 12.1367C27.4395 12.1367 27.2324 12.168 27.0566 12.2305C26.8848 12.2891 26.7402 12.377 26.623 12.4941C26.5098 12.6113 26.4238 12.7539 26.3652 12.9219C26.3105 13.0898 26.2793 13.2812 26.2715 13.4961L25.9316 13.3906C25.9316 12.9805 25.9727 12.6035 26.0547 12.2598C26.1367 11.9121 26.2559 11.6094 26.4121 11.3516C26.5723 11.0938 26.7676 10.8945 26.998 10.7539C27.2285 10.6133 27.4922 10.543 27.7891 10.543C27.8828 10.543 27.9785 10.5508 28.0762 10.5664C28.1738 10.5781 28.2539 10.5957 28.3164 10.6191ZM30.8945 10.6602V17H29.2012V10.6602H30.8945ZM29.0957 9.00781C29.0957 8.76172 29.1816 8.55859 29.3535 8.39844C29.5254 8.23828 29.7559 8.1582 30.0449 8.1582C30.3301 8.1582 30.5586 8.23828 30.7305 8.39844C30.9062 8.55859 30.9941 8.76172 30.9941 9.00781C30.9941 9.25391 30.9062 9.45703 30.7305 9.61719C30.5586 9.77734 30.3301 9.85742 30.0449 9.85742C29.7559 9.85742 29.5254 9.77734 29.3535 9.61719C29.1816 9.45703 29.0957 9.25391 29.0957 9.00781ZM34.3984 17H32.7051V10.373C32.7051 9.83398 32.8145 9.37891 33.0332 9.00781C33.2559 8.63672 33.5723 8.35547 33.9824 8.16406C34.3965 7.97266 34.8965 7.87695 35.4824 7.87695C35.8145 7.87695 36.1367 7.91016 36.4492 7.97656C36.7617 8.03906 37.084 8.12109 37.416 8.22266L37.1699 9.57617C36.9551 9.50977 36.7246 9.44727 36.4785 9.38867C36.2324 9.33008 35.9355 9.30078 35.5879 9.30078C35.1973 9.30078 34.9004 9.39258 34.6973 9.57617C34.498 9.75586 34.3984 10.0215 34.3984 10.373V17ZM35.6582 10.6602V11.8555H31.7617V10.6602H35.6582ZM38.2012 10.6602V17H36.5078V10.6602H38.2012ZM42.5312 17.1172C42.0391 17.1172 41.5977 17.0391 41.207 16.8828C40.8164 16.7227 40.4844 16.502 40.2109 16.2207C39.9414 15.9395 39.7344 15.6133 39.5898 15.2422C39.4453 14.8672 39.373 14.4688 39.373 14.0469V13.8125C39.373 13.332 39.4414 12.8926 39.5781 12.4941C39.7148 12.0957 39.9102 11.75 40.1641 11.457C40.4219 11.1641 40.7344 10.9395 41.1016 10.7832C41.4688 10.623 41.8828 10.543 42.3438 10.543C42.793 10.543 43.1914 10.6172 43.5391 10.7656C43.8867 10.9141 44.1777 11.125 44.4121 11.3984C44.6504 11.6719 44.8301 12 44.9512 12.3828C45.0723 12.7617 45.1328 13.1836 45.1328 13.6484V14.3516H40.0938V13.2266H43.4746V13.0977C43.4746 12.8633 43.4316 12.6543 43.3457 12.4707C43.2637 12.2832 43.1387 12.1348 42.9707 12.0254C42.8027 11.916 42.5879 11.8613 42.3262 11.8613C42.1035 11.8613 41.9121 11.9102 41.752 12.0078C41.5918 12.1055 41.4609 12.2422 41.3594 12.418C41.2617 12.5938 41.1875 12.8008 41.1367 13.0391C41.0898 13.2734 41.0664 13.5312 41.0664 13.8125V14.0469C41.0664 14.3008 41.1016 14.5352 41.1719 14.75C41.2461 14.9648 41.3496 15.1504 41.4824 15.3066C41.6191 15.4629 41.7832 15.584 41.9746 15.6699C42.1699 15.7559 42.3906 15.7988 42.6367 15.7988C42.9414 15.7988 43.2246 15.7402 43.4863 15.623C43.752 15.502 43.9805 15.3203 44.1719 15.0781L44.9922 15.9688C44.8594 16.1602 44.6777 16.3438 44.4473 16.5195C44.2207 16.6953 43.9473 16.8398 43.627 16.9531C43.3066 17.0625 42.9414 17.1172 42.5312 17.1172ZM49.8379 15.6172V8H51.5371V17H50.0078L49.8379 15.6172ZM45.8301 13.9062V13.7832C45.8301 13.2988 45.8848 12.8594 45.9941 12.4648C46.1035 12.0664 46.2637 11.7246 46.4746 11.4395C46.6855 11.1543 46.9453 10.9336 47.2539 10.7773C47.5625 10.6211 47.9141 10.543 48.3086 10.543C48.6797 10.543 49.0039 10.6211 49.2812 10.7773C49.5625 10.9336 49.8008 11.1562 49.9961 11.4453C50.1953 11.7305 50.3555 12.0684 50.4766 12.459C50.5977 12.8457 50.6855 13.2695 50.7402 13.7305V14C50.6855 14.4414 50.5977 14.8516 50.4766 15.2305C50.3555 15.6094 50.1953 15.9414 49.9961 16.2266C49.8008 16.5078 49.5625 16.7266 49.2812 16.8828C49 17.0391 48.6719 17.1172 48.2969 17.1172C47.9023 17.1172 47.5508 17.0371 47.2422 16.877C46.9375 16.7168 46.6797 16.4922 46.4688 16.2031C46.2617 15.9141 46.1035 15.5742 45.9941 15.1836C45.8848 14.793 45.8301 14.3672 45.8301 13.9062ZM47.5176 13.7832V13.9062C47.5176 14.168 47.5371 14.4121 47.5762 14.6387C47.6191 14.8652 47.6875 15.0664 47.7812 15.2422C47.8789 15.4141 48.0039 15.5488 48.1562 15.6465C48.3125 15.7402 48.502 15.7871 48.7246 15.7871C49.0137 15.7871 49.252 15.7227 49.4395 15.5938C49.627 15.4609 49.7695 15.2793 49.8672 15.0488C49.9688 14.8184 50.0273 14.5527 50.043 14.252V13.4844C50.0312 13.2383 49.9961 13.0176 49.9375 12.8223C49.8828 12.623 49.8008 12.4531 49.6914 12.3125C49.5859 12.1719 49.4531 12.0625 49.293 11.9844C49.1367 11.9062 48.9512 11.8672 48.7363 11.8672C48.5176 11.8672 48.3301 11.918 48.1738 12.0195C48.0176 12.1172 47.8906 12.252 47.793 12.4238C47.6992 12.5957 47.6289 12.7988 47.582 13.0332C47.5391 13.2637 47.5176 13.5137 47.5176 13.7832Z" fill="white"/>
</svg>
